<svg xmlns="http://www.w3.org/2000/svg" xmlns:xlink="http://www.w3.org/1999/xlink" width="3000" zoomAndPan="magnify" viewBox="0 0 375 374.999991" height="3000" preserveAspectRatio="xMidYMid meet" version="1.0"><defs><g/><clipPath id="id1"><path d="M 140.949219 94.597656 L 233.933594 94.597656 L 233.933594 225.847656 L 140.949219 225.847656 Z M 140.949219 94.597656 " clip-rule="nonzero"/></clipPath></defs><path fill="#87d1f5" d="M 166.695312 163.152344 C 159.789062 163.152344 152.308594 160.28125 143.6875 152.378906 L 155.152344 139.839844 C 165.238281 149.085938 168.332031 147.707031 183.046875 138.832031 C 197.628906 130.035156 211.398438 121.730469 231.167969 139.839844 L 219.703125 152.375 C 209.613281 143.128906 206.523438 144.511719 191.808594 153.386719 C 183.589844 158.347656 175.621094 163.152344 166.695312 163.152344 Z M 166.695312 163.152344 " fill-opacity="1" fill-rule="nonzero"/><path fill="#89aff4" d="M 166.695312 194.703125 C 159.789062 194.703125 152.308594 191.832031 143.6875 183.929688 L 155.152344 171.394531 C 165.242188 180.636719 168.332031 179.257812 183.046875 170.382812 C 197.628906 161.585938 211.398438 153.28125 231.167969 171.390625 L 219.703125 183.925781 C 209.613281 174.683594 206.523438 176.0625 191.808594 184.9375 C 183.589844 189.898438 175.621094 194.703125 166.695312 194.703125 Z M 166.695312 194.703125 " fill-opacity="1" fill-rule="nonzero"/><g clip-path="url(#id1)"><path fill="#4951af" d="M 187.429688 225.792969 C 161.789062 225.792969 140.933594 204.914062 140.933594 179.25 L 140.933594 141.203125 C 140.933594 115.535156 161.789062 94.65625 187.429688 94.65625 C 213.070312 94.65625 233.925781 115.535156 233.925781 141.203125 L 233.925781 179.25 C 233.925781 204.914062 213.066406 225.792969 187.429688 225.792969 Z M 187.429688 111.652344 C 171.152344 111.652344 157.910156 124.910156 157.910156 141.203125 L 157.910156 179.25 C 157.910156 195.542969 171.152344 208.796875 187.429688 208.796875 C 203.707031 208.796875 216.945312 195.542969 216.945312 179.25 L 216.945312 141.203125 C 216.945312 124.910156 203.707031 111.652344 187.429688 111.652344 Z M 187.429688 111.652344 " fill-opacity="1" fill-rule="nonzero"/></g><g fill="#272830" fill-opacity="1"><g transform="translate(104.200106, 261.251116)"><g><path d="M 11.210938 0.261719 C 16.765625 0.261719 21.21875 -4.222656 21.21875 -9.75 C 21.21875 -15.273438 16.765625 -19.757812 11.210938 -19.757812 C 5.6875 -19.757812 1.203125 -15.273438 1.203125 -9.75 C 1.203125 -4.222656 5.6875 0.261719 11.210938 0.261719 Z M 11.210938 -3.933594 C 7.929688 -3.933594 5.425781 -6.464844 5.425781 -9.75 C 5.425781 -13.03125 7.929688 -15.566406 11.210938 -15.566406 C 14.523438 -15.566406 17.027344 -13.03125 17.027344 -9.75 C 17.027344 -6.464844 14.523438 -3.933594 11.210938 -3.933594 Z M 11.210938 -3.933594 "/></g></g></g><g fill="#272830" fill-opacity="1"><g transform="translate(126.130905, 261.251116)"><g><path d="M 9.78125 -13.257812 C 8.285156 -13.257812 7.050781 -12.738281 6.078125 -11.859375 L 6.078125 -12.964844 L 1.917969 -12.996094 L 1.917969 7.796875 L 6.078125 7.832031 L 6.078125 -1.136719 C 7.050781 -0.261719 8.285156 0.261719 9.78125 0.261719 C 13.355469 0.261719 16.183594 -2.730469 16.183594 -6.5 C 16.183594 -10.269531 13.355469 -13.257812 9.78125 -13.257812 Z M 8.96875 -3.410156 C 7.246094 -3.410156 5.882812 -4.777344 5.882812 -6.5 C 5.882812 -8.222656 7.246094 -9.585938 8.96875 -9.585938 C 10.691406 -9.585938 12.054688 -8.222656 12.054688 -6.5 C 12.054688 -4.777344 10.691406 -3.410156 8.96875 -3.410156 Z M 8.96875 -3.410156 "/></g></g></g><g fill="#272830" fill-opacity="1"><g transform="translate(142.798281, 261.251116)"><g><path d="M 4.0625 -15.175781 C 5.296875 -15.175781 6.335938 -16.214844 6.335938 -17.449219 C 6.335938 -18.714844 5.296875 -19.722656 4.0625 -19.722656 C 2.828125 -19.722656 1.789062 -18.714844 1.789062 -17.449219 C 1.789062 -16.214844 2.828125 -15.175781 4.0625 -15.175781 Z M 1.980469 0 L 6.109375 0 L 6.109375 -12.996094 L 1.980469 -12.996094 Z M 1.980469 0 "/></g></g></g><g fill="#272830" fill-opacity="1"><g transform="translate(150.400863, 261.251116)"><g><path d="M 9.78125 -13.257812 C 8.285156 -13.257812 6.984375 -12.542969 6.078125 -11.40625 L 6.078125 -12.996094 L 1.917969 -12.996094 L 1.917969 0 L 6.078125 0 L 6.078125 -7.539062 C 6.078125 -8.707031 7.050781 -9.585938 8.253906 -9.585938 C 9.457031 -9.585938 10.300781 -8.707031 10.300781 -7.539062 L 10.300781 0 L 14.425781 0 L 14.425781 -8.222656 C 14.425781 -11.082031 12.347656 -13.257812 9.78125 -13.257812 Z M 9.78125 -13.257812 "/></g></g></g><g fill="#272830" fill-opacity="1"><g transform="translate(165.963562, 261.251116)"><g><path d="M 4.0625 -15.175781 C 5.296875 -15.175781 6.335938 -16.214844 6.335938 -17.449219 C 6.335938 -18.714844 5.296875 -19.722656 4.0625 -19.722656 C 2.828125 -19.722656 1.789062 -18.714844 1.789062 -17.449219 C 1.789062 -16.214844 2.828125 -15.175781 4.0625 -15.175781 Z M 1.980469 0 L 6.109375 0 L 6.109375 -12.996094 L 1.980469 -12.996094 Z M 1.980469 0 "/></g></g></g><g fill="#272830" fill-opacity="1"><g transform="translate(173.56614, 261.251116)"><g><path d="M 8.253906 0.261719 C 12.609375 0.261719 15.46875 -2.597656 15.46875 -6.5 C 15.46875 -10.398438 12.609375 -13.257812 8.253906 -13.257812 C 3.898438 -13.257812 1.007812 -10.398438 1.007812 -6.5 C 1.007812 -2.597656 3.898438 0.261719 8.253906 0.261719 Z M 8.253906 -3.410156 C 6.464844 -3.445312 5.167969 -4.742188 5.167969 -6.5 C 5.167969 -8.253906 6.464844 -9.554688 8.253906 -9.585938 C 10.007812 -9.554688 11.339844 -8.253906 11.339844 -6.5 C 11.339844 -4.742188 10.007812 -3.445312 8.253906 -3.410156 Z M 8.253906 -3.410156 "/></g></g></g><g fill="#272830" fill-opacity="1"><g transform="translate(189.551218, 261.251116)"><g><path d="M 9.78125 -13.257812 C 8.285156 -13.257812 6.984375 -12.542969 6.078125 -11.40625 L 6.078125 -12.996094 L 1.917969 -12.996094 L 1.917969 0 L 6.078125 0 L 6.078125 -7.539062 C 6.078125 -8.707031 7.050781 -9.585938 8.253906 -9.585938 C 9.457031 -9.585938 10.300781 -8.707031 10.300781 -7.539062 L 10.300781 0 L 14.425781 0 L 14.425781 -8.222656 C 14.425781 -11.082031 12.347656 -13.257812 9.78125 -13.257812 Z M 9.78125 -13.257812 "/></g></g></g><g fill="#272830" fill-opacity="1"><g transform="translate(205.113917, 261.251116)"><g/></g></g><g fill="#272830" fill-opacity="1"><g transform="translate(212.391592, 261.251116)"><g><path d="M 15.695312 -19.496094 L 1.558594 -19.496094 L 1.558594 -15.695312 L 9.035156 -15.695312 L 0.746094 0 L 15.695312 0 L 15.695312 -3.800781 L 7.472656 -3.800781 Z M 15.695312 -19.496094 "/></g></g></g><g fill="#272830" fill-opacity="1"><g transform="translate(228.506635, 261.251116)"><g><path d="M 15.140625 -6.53125 C 15.140625 -10.59375 12.347656 -13.289062 8.15625 -13.289062 C 3.964844 -13.289062 1.007812 -10.558594 1.007812 -6.5 C 1.007812 -2.4375 3.933594 0.261719 8.285156 0.261719 C 11.894531 0.261719 14.296875 -1.65625 14.945312 -4.484375 L 10.949219 -4.484375 C 10.59375 -3.445312 9.652344 -2.828125 8.222656 -2.828125 C 6.335938 -2.828125 5.363281 -3.964844 5.199219 -5.816406 L 15.140625 -5.816406 Z M 8.222656 -10.105469 C 9.617188 -10.105469 10.429688 -9.457031 10.851562 -8.320312 L 5.457031 -8.320312 C 5.882812 -9.421875 6.757812 -10.105469 8.222656 -10.105469 Z M 8.222656 -10.105469 "/></g></g></g><g fill="#272830" fill-opacity="1"><g transform="translate(244.101829, 261.251116)"><g><path d="M 9.714844 -13.257812 C 8.1875 -13.257812 6.921875 -12.476562 6.078125 -11.210938 L 6.078125 -12.996094 L 1.917969 -12.996094 L 1.917969 0 L 6.078125 0 L 6.078125 -6.207031 C 6.078125 -8.351562 7.539062 -9.585938 9.585938 -9.585938 C 10.074219 -9.585938 10.496094 -9.519531 10.789062 -9.457031 L 10.789062 -13.128906 C 10.496094 -13.226562 10.105469 -13.257812 9.714844 -13.257812 Z M 9.714844 -13.257812 "/></g></g></g><g fill="#272830" fill-opacity="1"><g transform="translate(254.30363, 261.251116)"><g><path d="M 8.253906 0.261719 C 12.609375 0.261719 15.46875 -2.597656 15.46875 -6.5 C 15.46875 -10.398438 12.609375 -13.257812 8.253906 -13.257812 C 3.898438 -13.257812 1.007812 -10.398438 1.007812 -6.5 C 1.007812 -2.597656 3.898438 0.261719 8.253906 0.261719 Z M 8.253906 -3.410156 C 6.464844 -3.445312 5.167969 -4.742188 5.167969 -6.5 C 5.167969 -8.253906 6.464844 -9.554688 8.253906 -9.585938 C 10.007812 -9.554688 11.339844 -8.253906 11.339844 -6.5 C 11.339844 -4.742188 10.007812 -3.445312 8.253906 -3.410156 Z M 8.253906 -3.410156 "/></g></g></g><g fill="#272830" fill-opacity="1"><g transform="translate(135.218645, 276.801193)"><g><path d="M 6.25 0 L 4.546875 0 L 2 -4.71875 C 2.03125 -4.15625 2.046875 -3.519531 2.046875 -2.8125 L 2.046875 0 L 0.796875 0 L 0.796875 -6.203125 L 2.453125 -6.203125 L 5.0625 -1.40625 C 5.03125 -1.957031 5.015625 -2.609375 5.015625 -3.359375 L 5.015625 -6.203125 L 6.25 -6.203125 Z M 6.25 0 "/></g></g></g><g fill="#272830" fill-opacity="1"><g transform="translate(143.138698, 276.801193)"><g><path d="M 5.28125 -0.984375 L 5.28125 0 L 0.796875 0 L 0.796875 -6.203125 L 5.1875 -6.203125 L 5.1875 -5.234375 L 2.046875 -5.234375 L 2.046875 -3.59375 L 4.96875 -3.59375 L 4.96875 -2.625 L 2.046875 -2.625 L 2.046875 -0.984375 Z M 5.28125 -0.984375 "/></g></g></g><g fill="#272830" fill-opacity="1"><g transform="translate(149.762743, 276.801193)"><g><path d="M 8.921875 -6.203125 L 7.265625 0 L 5.625 0 L 4.5625 -5.171875 L 3.453125 0 L 1.796875 0 L 0.234375 -6.203125 L 1.578125 -6.203125 L 2.625 -0.953125 L 3.71875 -6.125 L 5.46875 -6.125 L 6.53125 -0.9375 L 7.640625 -6.203125 Z M 8.921875 -6.203125 "/></g></g></g><g fill="#272830" fill-opacity="1"><g transform="translate(159.725805, 276.801193)"><g><path d="M 2.859375 -6.34375 C 3.566406 -6.34375 4.109375 -6.164062 4.484375 -5.8125 C 4.859375 -5.457031 5.082031 -4.984375 5.15625 -4.390625 L 3.890625 -4.390625 C 3.847656 -4.710938 3.738281 -4.960938 3.5625 -5.140625 C 3.382812 -5.316406 3.132812 -5.40625 2.8125 -5.40625 C 2.5625 -5.40625 2.351562 -5.34375 2.1875 -5.21875 C 2.019531 -5.09375 1.9375 -4.910156 1.9375 -4.671875 C 1.9375 -4.410156 2.035156 -4.203125 2.234375 -4.046875 C 2.429688 -3.898438 2.773438 -3.769531 3.265625 -3.65625 C 3.941406 -3.5 4.441406 -3.257812 4.765625 -2.9375 C 5.085938 -2.625 5.25 -2.210938 5.25 -1.703125 C 5.25 -1.140625 5.023438 -0.691406 4.578125 -0.359375 C 4.140625 -0.0351562 3.597656 0.125 2.953125 0.125 C 2.191406 0.125 1.585938 -0.0390625 1.140625 -0.375 C 0.691406 -0.707031 0.4375 -1.195312 0.375 -1.84375 L 1.640625 -1.84375 C 1.710938 -1.507812 1.863281 -1.25 2.09375 -1.0625 C 2.332031 -0.882812 2.613281 -0.796875 2.9375 -0.796875 C 3.21875 -0.796875 3.457031 -0.867188 3.65625 -1.015625 C 3.851562 -1.160156 3.953125 -1.347656 3.953125 -1.578125 C 3.953125 -1.847656 3.859375 -2.0625 3.671875 -2.21875 C 3.484375 -2.382812 3.160156 -2.519531 2.703125 -2.625 C 2.015625 -2.789062 1.5 -3.015625 1.15625 -3.296875 C 0.8125 -3.578125 0.640625 -3.984375 0.640625 -4.515625 C 0.640625 -5.066406 0.851562 -5.507812 1.28125 -5.84375 C 1.71875 -6.175781 2.242188 -6.34375 2.859375 -6.34375 Z M 2.859375 -6.34375 "/></g></g></g><g fill="#272830" fill-opacity="1"><g transform="translate(166.277845, 276.801193)"><g/></g></g><g fill="#272830" fill-opacity="1"><g transform="translate(169.103857, 276.801193)"><g><path d="M 4.171875 -1.875 L 2.078125 -1.875 L 1.453125 0 L 0.140625 0 L 2.375 -6.203125 L 3.9375 -6.203125 L 6.125 0 L 4.78125 0 Z M 3.125 -5.140625 L 2.390625 -2.859375 L 3.859375 -2.859375 Z M 3.125 -5.140625 "/></g></g></g><g fill="#272830" fill-opacity="1"><g transform="translate(176.267901, 276.801193)"><g><path d="M 3.859375 -6.171875 C 4.347656 -6.109375 4.75 -5.914062 5.0625 -5.59375 C 5.375 -5.269531 5.53125 -4.832031 5.53125 -4.28125 C 5.53125 -3.726562 5.367188 -3.285156 5.046875 -2.953125 C 4.734375 -2.628906 4.335938 -2.441406 3.859375 -2.390625 C 3.597656 -2.359375 3.296875 -2.34375 2.953125 -2.34375 L 2.046875 -2.34375 L 2.046875 0 L 0.796875 0 L 0.796875 -6.203125 L 2.953125 -6.203125 C 3.296875 -6.203125 3.597656 -6.191406 3.859375 -6.171875 Z M 3.484375 -3.34375 C 3.972656 -3.414062 4.21875 -3.722656 4.21875 -4.265625 C 4.21875 -4.816406 3.972656 -5.128906 3.484375 -5.203125 C 3.347656 -5.222656 3.164062 -5.234375 2.9375 -5.234375 L 2.046875 -5.234375 L 2.046875 -3.328125 L 2.9375 -3.328125 C 3.164062 -3.328125 3.347656 -3.332031 3.484375 -3.34375 Z M 3.484375 -3.34375 "/></g></g></g><g fill="#272830" fill-opacity="1"><g transform="translate(182.954947, 276.801193)"><g><path d="M 3.859375 -6.171875 C 4.347656 -6.109375 4.75 -5.914062 5.0625 -5.59375 C 5.375 -5.269531 5.53125 -4.832031 5.53125 -4.28125 C 5.53125 -3.726562 5.367188 -3.285156 5.046875 -2.953125 C 4.734375 -2.628906 4.335938 -2.441406 3.859375 -2.390625 C 3.597656 -2.359375 3.296875 -2.34375 2.953125 -2.34375 L 2.046875 -2.34375 L 2.046875 0 L 0.796875 0 L 0.796875 -6.203125 L 2.953125 -6.203125 C 3.296875 -6.203125 3.597656 -6.191406 3.859375 -6.171875 Z M 3.484375 -3.34375 C 3.972656 -3.414062 4.21875 -3.722656 4.21875 -4.265625 C 4.21875 -4.816406 3.972656 -5.128906 3.484375 -5.203125 C 3.347656 -5.222656 3.164062 -5.234375 2.9375 -5.234375 L 2.046875 -5.234375 L 2.046875 -3.328125 L 2.9375 -3.328125 C 3.164062 -3.328125 3.347656 -3.332031 3.484375 -3.34375 Z M 3.484375 -3.34375 "/></g></g></g><g fill="#272830" fill-opacity="1"><g transform="translate(189.641993, 276.801193)"><g><path d="M 5.28125 -1.03125 L 5.28125 0 L 0.796875 0 L 0.796875 -6.203125 L 2.046875 -6.203125 L 2.046875 -1.03125 Z M 5.28125 -1.03125 "/></g></g></g><g fill="#272830" fill-opacity="1"><g transform="translate(196.158029, 276.801193)"><g><path d="M 2.046875 0 L 0.796875 0 L 0.796875 -6.203125 L 2.046875 -6.203125 Z M 2.046875 0 "/></g></g></g><g fill="#272830" fill-opacity="1"><g transform="translate(199.866052, 276.801193)"><g><path d="M 3.46875 -6.34375 C 4.28125 -6.34375 4.910156 -6.144531 5.359375 -5.75 C 5.816406 -5.351562 6.078125 -4.832031 6.140625 -4.1875 L 6.15625 -4.109375 L 4.90625 -4.109375 L 4.890625 -4.1875 C 4.734375 -5 4.253906 -5.40625 3.453125 -5.40625 C 2.941406 -5.40625 2.53125 -5.203125 2.21875 -4.796875 C 1.914062 -4.390625 1.765625 -3.835938 1.765625 -3.140625 C 1.765625 -2.390625 1.914062 -1.8125 2.21875 -1.40625 C 2.53125 -1 2.929688 -0.796875 3.421875 -0.796875 C 3.816406 -0.796875 4.132812 -0.90625 4.375 -1.125 C 4.625 -1.351562 4.789062 -1.664062 4.875 -2.0625 L 4.890625 -2.15625 L 6.125 -2.15625 L 6.109375 -2.0625 C 6.046875 -1.382812 5.769531 -0.847656 5.28125 -0.453125 C 4.789062 -0.0664062 4.15625 0.125 3.375 0.125 C 2.5 0.125 1.789062 -0.160156 1.25 -0.734375 C 0.71875 -1.316406 0.453125 -2.09375 0.453125 -3.0625 C 0.453125 -4.0625 0.734375 -4.859375 1.296875 -5.453125 C 1.867188 -6.046875 2.59375 -6.34375 3.46875 -6.34375 Z M 3.46875 -6.34375 "/></g></g></g><g fill="#272830" fill-opacity="1"><g transform="translate(207.408097, 276.801193)"><g><path d="M 4.171875 -1.875 L 2.078125 -1.875 L 1.453125 0 L 0.140625 0 L 2.375 -6.203125 L 3.9375 -6.203125 L 6.125 0 L 4.78125 0 Z M 3.125 -5.140625 L 2.390625 -2.859375 L 3.859375 -2.859375 Z M 3.125 -5.140625 "/></g></g></g><g fill="#272830" fill-opacity="1"><g transform="translate(214.572144, 276.801193)"><g><path d="M 5.65625 -5.234375 L 3.5625 -5.234375 L 3.5625 0 L 2.3125 0 L 2.3125 -5.234375 L 0.203125 -5.234375 L 0.203125 -6.203125 L 5.65625 -6.203125 Z M 5.65625 -5.234375 "/></g></g></g><g fill="#272830" fill-opacity="1"><g transform="translate(221.25919, 276.801193)"><g><path d="M 2.046875 0 L 0.796875 0 L 0.796875 -6.203125 L 2.046875 -6.203125 Z M 2.046875 0 "/></g></g></g><g fill="#272830" fill-opacity="1"><g transform="translate(224.967212, 276.801193)"><g><path d="M 3.53125 -6.34375 C 4.476562 -6.34375 5.222656 -6.046875 5.765625 -5.453125 C 6.316406 -4.867188 6.59375 -4.085938 6.59375 -3.109375 C 6.59375 -2.128906 6.316406 -1.34375 5.765625 -0.75 C 5.222656 -0.164062 4.476562 0.125 3.53125 0.125 C 2.582031 0.125 1.832031 -0.164062 1.28125 -0.75 C 0.726562 -1.34375 0.453125 -2.128906 0.453125 -3.109375 C 0.453125 -4.085938 0.722656 -4.867188 1.265625 -5.453125 C 1.816406 -6.046875 2.570312 -6.34375 3.53125 -6.34375 Z M 2.21875 -1.40625 C 2.539062 -1 2.976562 -0.796875 3.53125 -0.796875 C 4.082031 -0.796875 4.515625 -1 4.828125 -1.40625 C 5.140625 -1.820312 5.296875 -2.390625 5.296875 -3.109375 C 5.296875 -3.828125 5.140625 -4.390625 4.828125 -4.796875 C 4.515625 -5.203125 4.082031 -5.40625 3.53125 -5.40625 C 2.96875 -5.40625 2.53125 -5.203125 2.21875 -4.796875 C 1.90625 -4.390625 1.75 -3.820312 1.75 -3.09375 C 1.75 -2.375 1.90625 -1.8125 2.21875 -1.40625 Z M 2.21875 -1.40625 "/></g></g></g><g fill="#272830" fill-opacity="1"><g transform="translate(232.932265, 276.801193)"><g><path d="M 6.25 0 L 4.546875 0 L 2 -4.71875 C 2.03125 -4.15625 2.046875 -3.519531 2.046875 -2.8125 L 2.046875 0 L 0.796875 0 L 0.796875 -6.203125 L 2.453125 -6.203125 L 5.0625 -1.40625 C 5.03125 -1.957031 5.015625 -2.609375 5.015625 -3.359375 L 5.015625 -6.203125 L 6.25 -6.203125 Z M 6.25 0 "/></g></g></g></svg>