<svg xmlns="http://www.w3.org/2000/svg" xmlns:xlink="http://www.w3.org/1999/xlink" viewBox="0 0 7889.72 8748.96"><defs><style>.cls-1{fill:none;}.cls-2{fill:#87d1f5;}.cls-3{fill:#89aff4;}.cls-4{clip-path:url(#clip-path);}.cls-5{fill:#4951af;}.cls-6{fill:#272830;}</style><clipPath id="clip-path" transform="translate(0 -2.81)"><rect class="cls-1" x="1706.21" width="4463.25" height="6300"/></clipPath></defs><g id="Layer_2" data-name="Layer 2"><g id="Layer_1-2" data-name="Layer 1"><path class="cls-2" d="M2942,3290.63c-331.5,0-690.56-137.82-1104.37-517.13L2388,2171.63c484.12,443.81,632.62,377.62,1338.94-48.38,699.93-422.25,1360.87-820.87,2309.81,48.38L5486.4,2773.31c-484.32-443.81-632.63-377.43-1338.94,48.57C3753,3060,3370.46,3290.63,2942,3290.63Z" transform="translate(0 -2.81)"/><path class="cls-3" d="M2942,4805.06c-331.5,0-690.56-137.81-1104.37-517.12L2388,3686.25c484.31,443.63,632.62,377.44,1338.94-48.56,699.93-422.25,1360.87-820.88,2309.81,48.37L5486.4,4287.75c-484.32-443.62-632.63-377.44-1338.94,48.56C3753,4574.44,3370.46,4805.06,2942,4805.06Z" transform="translate(0 -2.81)"/><g class="cls-4"><path class="cls-5" d="M3937.27,6297.38c-1230.75,0-2231.81-1002.19-2231.81-2234.07V2237.06C1705.46,1005,2706.52,2.81,3937.27,2.81S6169.08,1005,6169.08,2237.06V4063.31C6169.08,5295.19,5167.83,6297.38,3937.27,6297.38Zm0-5478.75C3156,818.63,2520.33,1455,2520.33,2237.06V4063.31c0,782.07,635.63,1418.25,1416.94,1418.25S5354,4845.38,5354,4063.31V2237.06C5354,1455,4718.58,818.63,3937.27,818.63Z" transform="translate(0 -2.81)"/></g><path class="cls-6" d="M480.38,8011.93c266.62,0,480.37-215.25,480.37-480.56C960.75,7266.24,747,7051,480.38,7051,215.25,7051,0,7266.24,0,7531.37,0,7796.68,215.25,8011.93,480.38,8011.93Zm0-201.38c-157.5,0-277.69-121.5-277.69-279.18,0-157.5,120.19-279.19,277.69-279.19,159,0,279.18,121.69,279.18,279.19C759.56,7689.05,639.38,7810.55,480.38,7810.55Z" transform="translate(0 -2.81)"/><path class="cls-6" d="M1464.43,7363c-71.81,0-131.06,24.94-177.75,67.13v-53.07l-199.69-1.5v998.07l199.69,1.68V7944.8c46.69,42,105.94,67.13,177.75,67.13,171.56,0,307.31-143.63,307.31-324.56S1636,7363,1464.43,7363Zm-39,472.69c-82.69,0-148.13-65.63-148.13-148.31s65.44-148.13,148.13-148.13,148.12,65.44,148.12,148.13S1508.12,7835.68,1425.43,7835.68Z" transform="translate(0 -2.81)"/><path class="cls-6" d="M1990,7270.93c59.25,0,109.13-49.88,109.13-109.13,0-60.75-49.88-109.12-109.13-109.12s-109.12,48.37-109.12,109.12C1880.84,7221.05,1930.71,7270.93,1990,7270.93ZM1890,7999.37h198.19V7375.55H1890Z" transform="translate(0 -2.81)"/><path class="cls-6" d="M2629.39,7363c-71.82,0-134.25,34.31-177.75,88.88v-76.32H2252v623.82h199.69V7637.49c0-56.06,46.68-98.25,104.43-98.25s98.25,42.19,98.25,98.25v361.88h198V7604.68C2852.32,7467.43,2752.57,7363,2629.39,7363Z" transform="translate(0 -2.81)"/><path class="cls-6" d="M3101.9,7270.93c59.25,0,109.12-49.88,109.12-109.13,0-60.75-49.87-109.12-109.12-109.12s-109.13,48.37-109.13,109.12C2992.77,7221.05,3042.65,7270.93,3101.9,7270.93ZM3002,7999.37h198.19V7375.55H3002Z" transform="translate(0 -2.81)"/><path class="cls-6" d="M3668,8011.93c209.06,0,346.31-137.25,346.31-324.56,0-187.13-137.25-324.38-346.31-324.38s-347.81,137.25-347.81,324.38C3320.2,7874.68,3459,8011.93,3668,8011.93Zm0-176.25c-85.88-1.69-148.13-63.94-148.13-148.31,0-84.19,62.25-146.63,148.13-148.13,84.19,1.5,148.12,63.94,148.12,148.13C3816.13,7771.74,3752.2,7834,3668,7835.68Z" transform="translate(0 -2.81)"/><path class="cls-6" d="M4508.6,7363c-71.81,0-134.25,34.31-177.75,88.88v-76.32H4131.17v623.82h199.68V7637.49c0-56.06,46.69-98.25,104.44-98.25s98.25,42.19,98.25,98.25v361.88h198V7604.68C4731.54,7467.43,4631.79,7363,4508.6,7363Z" transform="translate(0 -2.81)"/><path class="cls-6" d="M5888.82,7063.55H5210.25V7246h358.88l-397.88,753.38h717.57V7816.93H5494.13Z" transform="translate(0 -2.81)"/><path class="cls-6" d="M6635.71,7685.87c0-195-134.06-324.38-335.25-324.38s-343.12,131.06-343.12,325.88c0,195,140.44,324.56,349.31,324.56,173.25,0,288.56-92.06,319.69-227.81H6434.53c-17.07,49.87-62.25,79.5-130.88,79.5-90.56,0-137.25-54.57-145.12-143.44h477.18ZM6303.65,7514.3c66.94,0,105.94,31.13,126.19,85.69H6170.9C6191.34,7547.12,6233.34,7514.3,6303.65,7514.3Z" transform="translate(0 -2.81)"/><path class="cls-6" d="M7123.85,7363c-73.32,0-134.07,37.5-174.57,98.25v-85.69H6749.6v623.82h199.68V7701.43c0-102.94,70.13-162.19,168.38-162.19a279.29,279.29,0,0,1,57.75,6.19V7369.18C7161.35,7364.49,7142.6,7363,7123.85,7363Z" transform="translate(0 -2.81)"/><path class="cls-6" d="M7543.41,8011.93c209.06,0,346.31-137.25,346.31-324.56,0-187.13-137.25-324.38-346.31-324.38s-347.82,137.25-347.82,324.38C7195.59,7874.68,7334.34,8011.93,7543.41,8011.93Zm0-176.25c-85.88-1.69-148.13-63.94-148.13-148.31,0-84.19,62.25-146.63,148.13-148.13,84.18,1.5,148.12,63.94,148.12,148.13C7691.53,7771.74,7627.59,7834,7543.41,7835.68Z" transform="translate(0 -2.81)"/><path class="cls-6" d="M1731.14,8745.77h-81.75l-122.25-226.5c1.5,27,2.25,57.56,2.25,91.5v135h-60V8448h79.5l125.25,230.25c-1.5-26.44-2.25-57.75-2.25-93.75V8448h59.25Z" transform="translate(0 -2.81)"/><path class="cls-6" d="M2064.8,8698.52v47.25H1849.55V8448H2060.3v46.5H1909.55v78.75H2049.8v46.5H1909.55v78.75Z" transform="translate(0 -2.81)"/><path class="cls-6" d="M2557.51,8448,2478,8745.77h-78.75l-51-248.25L2295,8745.77h-79.5l-75-297.75H2205l50.25,252,52.5-248.25h84l51,249L2496,8448Z" transform="translate(0 -2.81)"/><path class="cls-6" d="M2744.73,8441.27c33.94,0,60,8.62,78,25.5,18,17.06,28.69,39.75,32.25,68.25h-60.75q-3.09-23.07-15.75-36c-8.62-8.44-20.62-12.75-36-12.75-12,0-22.12,3-30,9-8.06,6-12,14.81-12,26.25,0,12.56,4.69,22.5,14.25,30,9.38,7.12,25.88,13.31,49.5,18.75,32.44,7.5,56.44,19.12,72,34.5,15.38,15,23.25,34.87,23.25,59.25,0,27-10.87,48.56-32.25,64.5-21,15.56-47.06,23.25-78,23.25-36.56,0-65.62-7.88-87-24-21.56-15.94-33.75-39.38-36.75-70.5h60.75c3.38,16.12,10.69,28.5,21.75,37.5,11.44,8.62,24.94,12.75,40.5,12.75,13.5,0,24.94-3.38,34.5-10.5,9.38-6.94,14.25-15.94,14.25-27,0-12.94-4.5-23.25-13.5-30.75-9-7.88-24.56-14.44-46.5-19.5-33-7.88-57.75-18.75-74.25-32.25s-24.75-33-24.75-58.5c0-26.44,10.13-47.63,30.75-63.75C2690,8449.33,2715.11,8441.27,2744.73,8441.27Z" transform="translate(0 -2.81)"/><path class="cls-6" d="M3257.88,8655.77h-100.5l-30,90h-63L3171.63,8448h75l105,297.75h-64.5ZM3207.63,8499l-35.25,109.5h70.5Z" transform="translate(0 -2.81)"/><path class="cls-6" d="M3586.75,8449.52c23.44,3,42.75,12.37,57.75,27.75q22.5,23.34,22.5,63c0,26.62-7.87,47.81-23.25,63.75-15,15.56-34.12,24.56-57,27a370.37,370.37,0,0,1-43.5,2.25h-43.5v112.5h-60V8448h103.5C3559.75,8448,3574.19,8448.58,3586.75,8449.52Zm-18,135.75c23.44-3.38,35.25-18.19,35.25-44.25,0-26.44-11.81-41.44-35.25-45a191.83,191.83,0,0,0-26.25-1.5h-42.75V8586h42.75C3553.38,8586,3562.19,8585.83,3568.75,8585.27Z" transform="translate(0 -2.81)"/><path class="cls-6" d="M3907.73,8449.52c23.44,3,42.75,12.37,57.75,27.75q22.5,23.34,22.5,63c0,26.62-7.87,47.81-23.25,63.75-15,15.56-34.12,24.56-57,27a370.37,370.37,0,0,1-43.5,2.25h-43.5v112.5h-60V8448h103.5C3880.73,8448,3895.17,8448.58,3907.73,8449.52Zm-18,135.75c23.44-3.38,35.25-18.19,35.25-44.25,0-26.44-11.81-41.44-35.25-45a191.83,191.83,0,0,0-26.25-1.5h-42.75V8586h42.75C3874.36,8586,3883.17,8585.83,3889.73,8585.27Z" transform="translate(0 -2.81)"/><path class="cls-6" d="M4297,8696.27v49.5H4081.71V8448h60v248.25Z" transform="translate(0 -2.81)"/><path class="cls-6" d="M4454.48,8745.77h-60V8448h60Z" transform="translate(0 -2.81)"/><path class="cls-6" d="M4700.72,8441.27c39,0,69.18,9.56,90.75,28.5,21.93,19.12,34.5,44.06,37.5,75l.75,3.75h-60l-.75-3.75q-11.25-58.5-69-58.5c-24.57,0-44.25,9.75-59.25,29.25-14.63,19.5-21.75,46.12-21.75,79.5,0,36,7.12,63.75,21.75,83.25,15,19.5,34.12,29.25,57.75,29.25,18.93,0,34.12-5.25,45.75-15.75,12-10.88,19.87-25.88,24-45l.75-4.5h59.25l-.75,4.5c-3,32.62-16.32,58.31-39.75,77.25-23.63,18.56-54,27.75-91.5,27.75-42,0-76.13-13.69-102-41.25Q4556,8668.61,4556,8598.77q0-72,40.5-114.75C4623.84,8455.52,4658.72,8441.27,4700.72,8441.27Z" transform="translate(0 -2.81)"/><path class="cls-6" d="M5096.48,8655.77H4996l-30,90h-63L5010.23,8448h75l105,297.75h-64.5ZM5046.23,8499,5011,8608.52h70.5Z" transform="translate(0 -2.81)"/><path class="cls-6" d="M5511.61,8494.52h-100.5v251.25h-60V8494.52H5249.86V8448h261.75Z" transform="translate(0 -2.81)"/><path class="cls-6" d="M5659.34,8745.77h-60V8448h60Z" transform="translate(0 -2.81)"/><path class="cls-6" d="M5908.57,8441.27q68.07,0,107.25,42.75,39.66,42.18,39.75,112.5,0,70.59-39.75,113.25c-26.06,28.12-61.87,42-107.25,42-45.56,0-81.56-13.88-108-42-26.62-28.5-39.75-66.19-39.75-113.25q0-70.32,39-112.5Q5839.48,8441.27,5908.57,8441.27Zm-63,237q23.07,29.25,63,29.25c26.44,0,47.25-9.75,62.25-29.25,15-19.88,22.5-47.25,22.5-81.75s-7.5-61.5-22.5-81-35.81-29.25-62.25-29.25q-40.5,0-63,29.25c-15,19.5-22.5,46.87-22.5,81.75Q5823.07,8649,5845.57,8678.27Z" transform="translate(0 -2.81)"/><path class="cls-6" d="M6421.39,8745.77h-81.75l-122.25-226.5c1.5,27,2.25,57.56,2.25,91.5v135h-60V8448h79.5l125.25,230.25c-1.5-26.44-2.25-57.75-2.25-93.75V8448h59.25Z" transform="translate(0 -2.81)"/></g></g></svg>